<?xml version="1.0" standalone="no"?>
<!DOCTYPE svg PUBLIC "-//W3C//DTD SVG 20010904//EN"
 "http://www.w3.org/TR/2001/REC-SVG-20010904/DTD/svg10.dtd">
<svg version="1.0" xmlns="http://www.w3.org/2000/svg"
 width="407.000000pt" height="318.000000pt" viewBox="0 0 407.000000 318.000000"
 preserveAspectRatio="xMidYMid meet">

<g transform="translate(0.000000,318.000000) scale(0.100000,-0.100000)"
fill="#000000" stroke="none">
<path d="M245 3030 l-40 -5 -2 -185 c-2 -110 -7 -194 -14 -206 -8 -16 -8 -27
0 -42 6 -11 11 -69 11 -127 0 -58 5 -115 10 -126 10 -18 24 -19 248 -19 172 0
241 3 250 12 7 7 12 38 12 69 l0 57 -35 6 c-20 4 -40 4 -46 0 -6 -3 -66 -3
-135 1 -110 6 -124 9 -129 26 -11 35 12 48 88 51 l72 3 0 65 0 65 -72 3 c-45
2 -75 8 -83 16 -7 9 -10 47 -8 103 l3 88 159 3 c97 1 165 7 173 13 8 7 13 34
13 70 l0 59 -42 1 c-299 3 -399 3 -433 -1z"/>
<path d="M1025 3030 l-220 -5 -3 -51 c-5 -80 3 -84 163 -84 74 0 136 -4 139
-9 3 -4 -34 -59 -82 -122 -244 -318 -222 -283 -222 -354 0 -53 3 -66 19 -75
29 -15 473 -14 489 2 16 16 16 128 0 130 -7 0 -17 2 -23 3 -5 2 -65 3 -132 4
-143 1 -146 4 -85 79 43 53 172 216 220 278 30 39 32 47 32 123 0 45 -3 81 -7
82 -25 4 -92 3 -288 -1z"/>
<path d="M3580 3030 l-235 -5 -2 -185 c-2 -105 -8 -194 -14 -205 -7 -15 -7
-29 0 -49 6 -15 11 -76 11 -135 0 -70 4 -111 12 -119 16 -16 460 -17 489 -2
15 9 19 22 19 70 0 56 -1 59 -27 64 -16 3 -90 5 -166 4 -148 -1 -164 3 -153
46 6 24 10 25 84 28 l77 3 0 65 0 65 -72 3 c-45 2 -75 8 -83 16 -7 9 -10 47
-8 103 l3 88 150 2 c205 4 195 0 195 77 0 58 -2 64 -22 67 -13 2 -129 2 -258
-1z"/>
<path d="M1490 3009 c-67 -40 -70 -48 -70 -212 0 -99 -4 -154 -12 -167 -10
-16 -10 -24 0 -40 7 -11 12 -53 12 -97 0 -71 3 -81 26 -107 42 -45 88 -59 210
-64 130 -5 195 11 244 60 27 27 30 36 30 94 l0 64 -80 0 -80 0 -7 -30 c-3 -17
-14 -35 -24 -40 -23 -13 -91 -13 -124 0 l-25 10 2 202 3 203 78 3 78 3 10 -31
c13 -35 33 -42 110 -38 l54 3 3 49 c4 66 -13 102 -63 131 -39 24 -50 25 -191
25 -133 0 -153 -2 -184 -21z"/>
<path d="M2115 3011 c-16 -10 -40 -32 -52 -51 -21 -30 -23 -44 -23 -179 0 -93
-4 -151 -11 -158 -8 -8 -8 -17 0 -31 6 -11 11 -50 11 -87 0 -104 35 -150 132
-173 60 -15 196 -15 256 -1 97 24 132 74 132 187 0 29 5 63 11 74 8 14 8 27 1
42 -6 11 -12 87 -14 168 -3 140 -4 148 -28 173 -47 50 -67 55 -232 54 -127 0
-158 -3 -183 -18z m263 -133 c8 -8 12 -67 12 -199 0 -153 -3 -189 -15 -199
-18 -15 -132 -15 -151 1 -19 15 -20 379 -2 397 16 16 140 16 156 0z"/>
<path d="M2696 2833 c-6 -254 -6 -229 0 -368 3 -66 10 -125 16 -132 13 -16
278 -18 363 -2 72 13 101 31 126 80 17 34 19 60 19 263 0 265 -6 291 -75 331
-41 24 -47 25 -243 25 l-201 0 -5 -197z m344 -128 c3 -99 2 -191 -1 -205 -5
-24 -8 -25 -85 -25 l-79 0 -3 195 c-1 107 0 200 3 208 3 9 25 12 82 10 l78 -3
5 -180z"/>
<path d="M1367 1533 c-15 -14 -4 -36 64 -135 39 -57 104 -152 145 -213 42 -60
98 -141 125 -180 27 -38 62 -87 77 -109 15 -21 34 -48 42 -60 24 -33 109 -150
118 -161 4 -5 17 -25 27 -42 38 -64 16 -89 386 440 68 98 163 234 211 302 48
68 88 132 90 142 3 17 -25 18 -638 21 -352 1 -644 -1 -647 -5z"/>
<path d="M2681 1518 c0 -7 49 -83 109 -168 60 -85 126 -181 147 -212 21 -31
43 -57 50 -58 7 0 26 19 43 43 191 264 270 382 266 393 -8 20 -616 21 -615 2z"/>
</g>
</svg>
